<svg width="300" height="93" viewBox="0 0 300 93" fill="none" xmlns="http://www.w3.org/2000/svg">
<g clip-path="url(#clip0_7797_18419)">
<path d="M109.319 0.197691C104.873 0.17543 100.466 1.02808 96.3503 2.70685C92.2346 4.38562 88.4912 6.85756 85.3341 9.98124C82.1769 13.1049 79.6682 16.819 77.9512 20.911C76.2343 25.0031 75.3429 29.3927 75.3281 33.8288C75.3281 42.8231 78.9093 51.449 85.2839 57.8089C91.6584 64.1688 100.304 67.7418 109.319 67.7418C118.334 67.7418 126.98 64.1688 133.354 57.8089C139.729 51.449 143.31 42.8231 143.31 33.8288C143.295 29.3927 142.404 25.0031 140.687 20.911C138.97 16.819 136.461 13.1049 133.304 9.98124C130.147 6.85756 126.404 4.38562 122.288 2.70685C118.172 1.02808 113.765 0.17543 109.319 0.197691ZM109.319 56.0287C106.411 56.0309 103.532 55.4559 100.848 54.3371C98.1651 53.2184 95.7317 51.5783 93.6899 49.5123C91.6481 47.4463 90.0386 44.9957 88.9551 42.3031C87.8717 39.6106 87.3359 36.7299 87.379 33.8288C87.379 30.9542 87.9465 28.1077 89.0491 25.4519C90.1517 22.7961 91.7678 20.383 93.8051 18.3504C95.8424 16.3177 98.2611 14.7053 100.923 13.6052C103.585 12.5052 106.438 11.939 109.319 11.939C112.2 11.939 115.053 12.5052 117.715 13.6052C120.377 14.7053 122.796 16.3177 124.833 18.3504C126.871 20.383 128.487 22.7961 129.589 25.4519C130.692 28.1077 131.259 30.9542 131.259 33.8288C131.302 36.7299 130.767 39.6106 129.683 42.3031C128.6 44.9957 126.99 47.4463 124.948 49.5123C122.907 51.5783 120.473 53.2184 117.79 54.3371C115.107 55.4559 112.227 56.0309 109.319 56.0287Z" fill="#F7941D"/>
<path d="M115.055 2.70605C99.5145 2.70605 87.3789 16.618 87.3789 33.7155C87.3789 27.9099 89.6905 22.3422 93.805 18.237C97.9196 14.1319 103.5 11.8256 109.319 11.8256C115.138 11.8256 120.719 14.1319 124.833 18.237C128.948 22.3422 131.259 27.9099 131.259 33.7155C131.259 39.521 128.948 45.0888 124.833 49.1939C120.719 53.299 115.138 55.6053 109.319 55.6053C103.5 55.6053 97.9196 53.299 93.805 49.1939C89.6905 45.0888 87.3789 39.521 87.3789 33.7155C87.3789 50.8834 99.458 64.7248 115.055 64.7248C130.652 64.7248 143.31 50.8129 143.31 33.7155C143.31 16.618 130.595 2.70605 115.055 2.70605Z" fill="url(#paint0_linear_7797_18419)"/>
<path d="M74.8772 1.69154C71.755 0.282027 62.4873 -0.338161 59.4922 6.28657L37.4531 55.2109L40.1515 61.1732C42.4402 66.2757 44.9266 66.8113 45.294 66.8113L74.8772 1.69154Z" fill="url(#paint1_linear_7797_18419)"/>
<path d="M40.1366 61.1727C37.6642 55.6615 18.3659 12.8544 15.4132 6.27194C12.4606 -0.310506 3.15046 0.239207 0 1.67691L26.8425 61.0176C28.5237 64.5837 32.0132 66.7966 37.3676 66.7966H45.3214C45.3214 66.7966 42.623 66.6839 40.1366 61.1727Z" fill="#F7941D"/>
<path d="M252.984 0.930664C252.645 0.930664 250.017 1.26895 247.813 6.21636C247.304 7.35807 246.301 9.57101 245.072 12.3478C252.419 28.67 259.774 44.9969 267.14 61.3285C270.149 67.9391 279.402 67.3612 282.539 65.9235L252.984 0.930664Z" fill="url(#paint2_linear_7797_18419)"/>
<path d="M255.356 50.0242L252.884 44.7526C251.019 40.524 248.052 39.5233 244.294 39.5233H232.738C232.738 39.5233 245.453 11.502 247.784 6.21636C250.115 0.930664 252.954 0.930664 252.954 0.930664H245.015C239.787 0.930664 236.227 2.96037 234.475 6.70969L207.506 65.9094C210.642 67.319 219.882 67.9955 222.891 61.3144C225.9 54.6333 228.443 49.0939 228.443 49.0939H249.846C254.085 49.0939 255.356 50.0665 255.356 50.0665V50.0242Z" fill="#F7941D"/>
<path d="M218.638 1.69154C215.473 0.282026 206.333 -0.338161 203.31 6.28657C200.286 12.9113 164.529 91.7597 164.529 91.7597C167.68 93.1693 176.82 93.8035 179.83 87.1647L218.638 1.69154Z" fill="url(#paint3_linear_7797_18419)"/>
<path d="M183.87 61.1588C181.355 55.6053 162.198 13.0379 159.147 6.2722C156.095 -0.493488 146.926 0.239462 143.762 1.67717L170.604 61.0038C172.285 64.584 175.761 66.7828 181.129 66.7828H189.083C189.083 66.7828 186.399 66.7264 183.87 61.1588Z" fill="#F7941D"/>
<path d="M292.611 66.7544C291.644 66.7433 290.702 66.447 289.903 65.9028C289.105 65.3587 288.485 64.591 288.123 63.6963C287.76 62.8017 287.671 61.8201 287.867 60.8751C288.062 59.9301 288.534 59.0638 289.221 58.3854C289.909 57.7071 290.783 57.2468 291.732 57.0626C292.681 56.8784 293.664 56.9785 294.557 57.3503C295.449 57.7221 296.212 58.3489 296.748 59.152C297.284 59.9551 297.57 60.8984 297.57 61.8634C297.566 62.5094 297.435 63.1483 297.184 63.7437C296.933 64.3391 296.567 64.8794 296.106 65.3335C295.646 65.7877 295.1 66.147 294.5 66.3907C293.901 66.6345 293.259 66.7581 292.611 66.7544ZM292.611 57.5925C291.777 57.6092 290.966 57.8713 290.28 58.3459C289.595 58.8206 289.065 59.4866 288.757 60.2606C288.449 61.0346 288.377 61.882 288.55 62.6966C288.723 63.5113 289.133 64.2568 289.729 64.8397C290.325 65.4227 291.08 65.8171 291.9 65.9735C292.72 66.1299 293.568 66.0414 294.337 65.719C295.107 65.3966 295.764 64.8547 296.226 64.1613C296.688 63.4679 296.934 62.6538 296.934 61.8211C296.935 61.2586 296.822 60.7017 296.604 60.1831C296.386 59.6645 296.066 59.1945 295.663 58.8007C295.261 58.407 294.783 58.0973 294.259 57.8898C293.735 57.6823 293.175 57.5813 292.611 57.5925ZM294.024 64.6401L292.611 62.4272H291.552V64.6401H290.845V59.002H293.148C293.378 58.9903 293.607 59.026 293.822 59.107C294.037 59.188 294.233 59.3125 294.398 59.4727C294.562 59.6329 294.692 59.8252 294.778 60.0378C294.865 60.2503 294.906 60.4783 294.9 60.7076C294.911 61.1096 294.773 61.5015 294.512 61.8084C294.251 62.1152 293.887 62.3155 293.487 62.3708L295.013 64.6119L294.024 64.6401ZM293.092 59.6786H291.453V61.7506H293.063C293.318 61.7209 293.553 61.599 293.723 61.408C293.893 61.217 293.988 60.9703 293.988 60.7146C293.988 60.4589 293.893 60.2122 293.723 60.0212C293.553 59.8302 293.318 59.7083 293.063 59.6786H293.092Z" fill="#6D6E71"/>
</g>
<defs>
<linearGradient id="paint0_linear_7797_18419" x1="87.2333" y1="36.0861" x2="143.164" y2="36.0861" gradientUnits="userSpaceOnUse">
<stop offset="0.01" stop-color="#EF3B24"/>
<stop offset="0.25" stop-color="#F05123"/>
<stop offset="0.45" stop-color="#F37021"/>
<stop offset="1" stop-color="#F68B1F"/>
</linearGradient>
<linearGradient id="paint1_linear_7797_18419" x1="56.8741" y1="62.1387" x2="82.3544" y2="8.36" gradientUnits="userSpaceOnUse">
<stop stop-color="#F05123"/>
<stop offset="0.45" stop-color="#F37021"/>
<stop offset="1" stop-color="#F68B1F"/>
</linearGradient>
<linearGradient id="paint2_linear_7797_18419" x1="258.418" y1="3.73434" x2="283.89" y2="58.1656" gradientUnits="userSpaceOnUse">
<stop stop-color="#F05123"/>
<stop offset="0.45" stop-color="#F37021"/>
<stop offset="1" stop-color="#F68B1F"/>
</linearGradient>
<linearGradient id="paint3_linear_7797_18419" x1="184.116" y1="90.5856" x2="221.332" y2="11.0773" gradientUnits="userSpaceOnUse">
<stop stop-color="#F05123"/>
<stop offset="0.45" stop-color="#F37021"/>
<stop offset="1" stop-color="#F68B1F"/>
</linearGradient>
<clipPath id="clip0_7797_18419">
<rect width="300" height="93" fill="white"/>
</clipPath>
</defs>
</svg>
